<svg width="64" height="64" viewBox="0 0 64 64" fill="none" xmlns="http://www.w3.org/2000/svg">
<path d="M64 32C64 49.673 49.673 64 32 64C14.327 64 0 49.673 0 32C0 14.327 14.327 0 32 0C49.673 0 64 14.327 64 32ZM35.3034 6.99115H28.7025V20.0464C20.6962 14.836 9.56113 19.2895 7.35787 28.5528C4.37864 41.0741 17.849 50.691 28.7025 43.9565V57.0118H35.3034V43.9565C43.4563 49.2006 54.5753 44.6284 56.7008 35.2095C59.4981 22.8173 45.9867 13.3237 35.3034 20.0464V6.99115Z" fill="#E0E0E0"/>
<path d="M21.1068 39.635C25.3235 39.635 28.7419 36.2166 28.7419 31.9999C28.7419 27.7831 25.3235 24.3647 21.1068 24.3647C16.89 24.3647 13.4717 27.7831 13.4717 31.9999C13.4717 36.2166 16.89 39.635 21.1068 39.635Z" fill="#E0E0E0"/>
<path d="M42.8939 39.6335C47.1107 39.6335 50.529 36.2152 50.529 31.9984C50.529 27.7816 47.1107 24.3633 42.8939 24.3633C38.6771 24.3633 35.2588 27.7816 35.2588 31.9984C35.2588 36.2152 38.6771 39.6335 42.8939 39.6335Z" fill="#E0E0E0"/>
</svg>
