<svg width="120" height="21" viewBox="0 0 120 21" fill="none" xmlns="http://www.w3.org/2000/svg">
<path d="M47.7581 9.03955C48.2401 15.2814 43.1689 20.8038 37.008 20.9942C30.5118 21.2058 25.7969 15.4718 27.0751 9.03955C33.9904 9.03955 40.8638 9.03955 47.7581 9.03955Z" fill="#E0E0E0"/>
<path d="M47.1305 6.1832C45.6008 2.24768 41.8497 -0.122095 37.7215 0.0048568C33.6562 0.11065 29.9471 2.56506 28.082 6.1832C34.4315 6.1832 40.781 6.1832 47.1305 6.1832Z" fill="#E0E0E0"/>
<path d="M6.24615 9.03965C9.95526 9.03965 13.6644 9.03965 17.3525 9.03965C18.1279 9.03965 18.7775 8.40489 18.8613 7.64318C18.9451 6.83915 18.3374 6.18323 17.5411 6.18323C13.0986 6.18323 8.67698 6.18323 4.23443 6.18323C4.80022 4.53285 5.36602 2.88247 5.93182 1.2321C6.0785 0.808922 6.47666 0.512695 6.93768 0.512695C10.8354 0.512695 14.754 0.512695 18.6518 0.512695C22.6333 0.512695 25.6299 3.81345 25.2737 7.83361C24.9174 11.6633 21.6065 14.7313 17.7926 14.7313C15.3618 14.7313 12.91 14.7313 10.4791 14.7313C9.80857 14.7313 9.22182 15.1545 9.01226 15.7681C8.5722 17.0588 8.13213 18.3706 7.69207 19.6613C7.54538 20.0845 7.14723 20.3807 6.70717 20.3807C4.905 20.3807 3.10283 20.3807 1.32162 20.3807C0.357674 20.3807 -0.229078 19.4709 0.0852534 18.5611C0.839649 16.3394 1.59404 14.1389 2.34844 11.9172C2.85137 10.2245 4.46494 9.03965 6.24615 9.03965Z" fill="#E0E0E0"/>
<path d="M109.389 20.3596C108.97 18.7939 108.551 17.2281 108.132 15.6624C107.985 15.07 107.482 14.6891 106.875 14.6891C106.309 14.6891 105.722 14.6891 105.156 14.6891C104.486 14.6891 103.899 15.1123 103.689 15.7259C103.249 17.0166 102.809 18.3284 102.369 19.6191C102.223 20.0423 101.824 20.3385 101.363 20.3385C99.5613 20.3385 97.7591 20.3385 95.9779 20.3385C95.0139 20.3385 94.4272 19.4286 94.7415 18.5188C95.4959 16.2972 96.2503 14.0967 97.0047 11.875C97.5914 10.1823 99.184 8.99741 100.965 8.99741C104.674 8.99741 108.383 8.99741 112.072 8.99741C112.847 8.99741 113.497 8.36265 113.58 7.60094C113.664 6.7969 113.057 6.14099 112.239 6.14099C107.797 6.14099 103.375 6.14099 98.9326 6.14099C99.4984 4.49061 100.064 2.84023 100.63 1.18985C100.777 0.766679 101.175 0.470459 101.636 0.470459C105.534 0.470459 109.452 0.470459 113.35 0.470459C117.331 0.470459 120.328 3.77122 119.972 7.79137C119.72 10.4997 118.002 12.806 115.676 13.9485C116.242 16.0856 116.808 18.2014 117.373 20.3596C114.691 20.3596 112.051 20.3596 109.389 20.3596Z" fill="#E0E0E0"/>
<path d="M60.4787 6.18314C60.9816 4.70203 61.4845 3.24209 61.9875 1.76098C62.197 1.12622 61.7779 0.491455 61.1283 0.491455C59.1585 0.491455 57.1887 0.491455 55.2189 0.491455C54.7788 0.491455 54.3597 0.787676 54.213 1.21085C53.6472 2.86123 53.0814 4.5116 52.5156 6.16198C55.156 6.18314 57.8173 6.18314 60.4787 6.18314Z" fill="#E0E0E0"/>
<path d="M65.3821 20.3596C60.1014 20.3596 54.7997 20.3596 49.5189 20.3596C48.5549 20.3596 47.9682 19.4498 48.2825 18.54C49.3722 15.3662 50.4409 12.1924 51.5306 9.01855C54.1919 9.01855 56.8323 9.01855 59.4937 9.01855C59.1165 10.0976 58.7602 11.1979 58.383 12.277C58.0687 13.1868 58.6764 14.0966 59.6404 14.0966C61.8826 14.0966 64.1458 14.0966 66.388 14.0966C67.3519 14.0966 67.9597 15.0065 67.6453 15.9163C67.2262 17.1647 66.8071 18.3919 66.388 19.6402C66.2413 20.0634 65.8432 20.3596 65.3821 20.3596Z" fill="#E0E0E0"/>
<path d="M83.698 0.872229C82.2312 2.64956 80.7852 4.40573 79.3184 6.18306C83.258 6.18306 87.1766 6.18306 91.1163 6.18306C90.9696 4.575 90.8229 2.94578 90.6762 1.33772C90.6343 0.851073 90.2361 0.512529 89.7542 0.512529C88.0149 0.512529 86.2546 0.512529 84.5153 0.512529C84.201 0.49137 83.9076 0.618325 83.698 0.872229Z" fill="#E0E0E0"/>
<path d="M85.2904 20.3596C87.2811 20.3596 89.2719 20.3596 91.2626 20.3596C91.8704 20.3596 92.3733 19.8095 92.3104 19.1959C91.9961 15.8105 91.7027 12.4039 91.3884 9.01855C86.5896 9.01855 81.7698 9.01855 76.971 9.01855C74.4774 12.0231 72.0046 15.0488 69.5109 18.0533C68.7565 18.9631 69.2804 20.3596 70.4958 20.3596C72.0675 20.3596 73.6601 20.3596 75.2318 20.3596C75.5461 20.3596 75.8395 20.2115 76.049 19.9576C77.3482 18.3707 78.6684 16.805 79.9677 15.218C80.2611 14.8795 80.6802 14.6891 81.1202 14.6891C81.6651 14.6891 82.189 14.6891 82.7128 14.6891C83.4044 14.6891 83.9702 15.1757 84.033 15.874C84.1378 17.08 84.2635 18.3072 84.3683 19.5133C84.4102 19.9999 84.8084 20.3596 85.2904 20.3596Z" fill="#E0E0E0"/>
</svg>
