<svg width="227" height="27" viewBox="0 0 227 27" fill="none" xmlns="http://www.w3.org/2000/svg">
<path d="M196.887 17.3457V0.640381H203.034V25.8819H196.474L185.585 9.88154L185.051 9.2684V25.8819H178.904V0.640381H185.372L196.887 17.3457Z" fill="#E8E8E8"/>
<path d="M226.246 0.640381V4.67903H212.301V10.6452H225.237V14.4085H212.301V21.4761H226.568L226.705 21.6138V25.8819H205.604V0.640381H226.246Z" fill="#E8E8E8"/>
<path d="M58.4416 17.5293V25.836L58.304 25.9737H51.7441V0.640391L65.4639 0.636719C72.0127 0.655076 74.1339 6.89112 72.3595 12.4094C70.354 18.6436 63.6216 17.4338 58.4416 17.5311V17.5293ZM58.4416 13.3071H62.5243C62.8271 13.3071 63.9335 12.9748 64.2547 12.8353C67.9887 11.2125 66.9061 4.77083 62.3408 4.77083H58.4416V13.3071Z" fill="#E8E8E8"/>
<path d="M153.123 17.5293V25.9737H146.518V0.640393L160.237 0.63672C166.806 0.633049 168.926 7.05083 167.072 12.5305C165.001 18.6546 158.254 17.4246 153.123 17.5293ZM153.123 13.3071H157.206C158.876 13.3071 160.889 11.8935 161.157 10.1918C161.601 7.3629 160.1 4.77083 157.023 4.77083H153.261L153.123 4.90851V13.3071Z" fill="#E8E8E8"/>
<path d="M95.1403 6.60664H88.8098C88.0722 3.86404 84.9381 2.91128 82.4298 3.75756C80.3691 4.45331 79.6095 6.89853 81.4261 8.34693C82.7142 9.37495 86.6538 9.89264 88.4428 10.414C93.0797 11.7669 96.9037 13.8468 95.8321 19.4587C94.4871 26.4896 85.3381 27.5066 79.6352 25.9261C75.947 24.9054 73.9891 22.3372 73.3047 18.629H79.7269C80.5049 22.0361 83.9216 23.5102 87.1382 22.4179C90.3548 21.3257 90.5181 17.5881 87.6189 16.013C85.9565 15.1098 83.5069 14.8271 81.6536 14.2709C78.5214 13.3292 74.6882 11.7045 74.402 7.94123C74.0919 3.84751 76.9452 1.39312 80.6444 0.502779C85.8556 -0.751037 94.221 0.0107984 95.1403 6.60664Z" fill="#E8E8E8"/>
<path d="M121.655 0.640381V25.8819H115.05V9.17661L101.884 25.8819H95.2324L114.912 0.640381H121.655Z" fill="#E8E8E8"/>
<path d="M36.1467 0.640381V21.0172H49.1747V25.8819H29.541V0.640381H36.1467Z" fill="#E8E8E8"/>
<path d="M130.922 0.640381V21.0172H143.95V25.8819H124.316V0.640381H130.922Z" fill="#E8E8E8"/>
<path d="M26.4229 0.640381L7.15988 25.289L6.78922 25.8819H0L19.7713 0.640381H26.4229Z" fill="#E8E8E8"/>
<path d="M176.336 0.640381H169.73V25.8819H176.336V0.640381Z" fill="#E8E8E8"/>
<path d="M26.0562 25.8821H11.1016L26.0562 6.88208V25.8821Z" fill="#E8E8E8"/>
</svg>
