<svg width="100" height="52" viewBox="0 0 100 52" fill="none" xmlns="http://www.w3.org/2000/svg">
<path fill-rule="evenodd" clip-rule="evenodd" d="M25.5482 0.00976562L25.5469 52L48.9893 51.9978V0.0102067L25.5478 0.00976562H25.5482ZM45.6253 31.7001C43.5621 34.6714 41.1667 35.7735 37.6355 35.9374C33.7073 35.9317 30.6478 34.6401 28.6731 31.1123C26.9872 27.4064 27.0367 23.8508 29.0623 20.3005C30.6091 18.0813 32.3149 16.8845 34.9348 16.2019C35.7973 16.0376 36.6734 15.9574 37.5509 15.9618C41.0662 16.2064 43.7564 17.6477 45.7929 20.5543C47.9075 24.2227 47.6921 28.0696 45.6249 31.7001H45.6253Z" fill="#E0E0E0"/>
<path fill-rule="evenodd" clip-rule="evenodd" d="M76.7133 0.000441082L76.7177 51.9995L99.9908 51.9982L100.001 0.0158655L76.7129 0L76.7133 0.000441082ZM81.0864 35.647L81.0886 16.3557L95.7801 16.3367L95.7744 20.7067L86.4172 20.6842L86.4079 23.804L94.346 23.8234L94.335 28.0343L86.3957 28.0321V31.2726L95.7762 31.2999L95.7797 35.6646L81.086 35.647H81.0864Z" fill="#E0E0E0"/>
<path fill-rule="evenodd" clip-rule="evenodd" d="M51.0981 0.00791504L51.0938 52L74.6011 51.9978V0.0065918L51.0981 0.00791504ZM71.4376 35.6602L69.0335 35.6985L59.1695 26.2417L59.1862 35.6544L54.3055 35.6491L54.2832 16.3235L57.1673 16.3173L66.51 25.9323L66.5346 16.3045L71.4376 16.3081V35.6602Z" fill="#E0E0E0"/>
<path fill-rule="evenodd" clip-rule="evenodd" d="M0 0.00962403V51.9999L23.449 51.9906L23.4552 0.00830078L0 0.00962403ZM15.1693 35.6821L8.69786 27.0083L8.70137 35.6813L3.36666 35.6883L3.38333 16.174L8.73822 16.1621L8.71366 24.8743L15.2702 16.1666L20.8786 16.1621L13.8571 25.7098L21.2432 35.6998L15.1693 35.6826V35.6821Z" fill="#E0E0E0"/>
<path fill-rule="evenodd" clip-rule="evenodd" d="M36.7598 20.4974C34.5702 20.9111 33.5716 21.915 32.7741 23.9671C32.4064 25.4688 32.4139 26.5228 32.814 28.0197C33.6085 29.8784 34.4938 30.7007 36.4026 31.3586C37.4143 31.526 38.0153 31.5661 39.0143 31.3528C40.6502 30.6196 41.2715 29.6828 41.8291 28.0105C42.1361 26.5193 42.119 25.43 41.7492 23.9534C40.781 21.4999 39.4267 20.4881 36.7598 20.4974Z" fill="#E0E0E0"/>
</svg>
